<svg width="44" height="28" viewBox="0 0 44 28" fill="none" xmlns="http://www.w3.org/2000/svg">
<path d="M13.8474 1.07578C14.5881 0.384473 15.5635 0 16.5767 0H40C42.2091 0 44 1.79086 44 4V24C44 26.2091 42.2091 28 40 28H16.5767C15.5635 28 14.5881 27.6155 13.8474 26.9242L3.13309 16.9242C1.43879 15.3429 1.43879 12.6571 3.13309 11.0758L13.8474 1.07578Z" fill="#10101E"/>
<path d="M35.7678 21.4086H32.086L27.9062 16.1552L23.7713 21.4086H20.2241L26.2673 13.9326L20.5833 6.59131H24.2203L28.1531 11.5753L32.1309 6.59131H35.4984L29.792 13.8203L35.7678 21.4086Z" fill="#F5F5F5"/>
</svg>
